# xmcd
#
# Track frame offsets:
#	150
#	13185
#	25743
#	41265
#	68462
#	89029
#	114336
#	137076
#	152991
#	171271
#	188109
#	214269
#	229899
#	251803
#	273468
#	291524
#
# Disc length: 4172 seconds
#
# Revision: 0
# Processed by: cddbd v1.5.2PL0 Copyright (c) Steve Scherf et al.
# Submitted via: EasyCDDAExtractor 16.0.6.1
#
DISCID=eb104a10
DTITLE=Άνευ ερμηνευτού - Ο κόσμος του Βαγγέλη-Β. Παπαθανασίου
DYEAR=1900
DGENRE=Ηλεκτρονική
TTITLE0=Italian Song [Anderson/Β. Παπαθανασίου]
TTITLE1=Tao of love
TTITLE2=Dervish D.
TTITLE3=Apocalypse des animaux
TTITLE4=Eric's theme
TTITLE5=Elsewhere
TTITLE6=The will of the wind
TTITLE7=Rotation's logic
TTITLE8=Hymne
TTITLE9=Chariot's of fire
TTITLE10=L'opera sauvage
TTITLE11=To the unknown man
TTITLE12=Chung Kuo
TTITLE13=Theme from Antartica
TTITLE14=I'll find my way home [Anderson/Β. Παπαθανασίου]
TTITLE15=First approach
EXTD=Rerecordings of some of vangelis's work.\n
EXTT0=
EXTT1=
EXTT2=
EXTT3=
EXTT4=
EXTT5=
EXTT6=
EXTT7=
EXTT8=
EXTT9=
EXTT10=
EXTT11=
EXTT12=
EXTT13=
EXTT14=
EXTT15=
PLAYORDER=
